<svg xmlns="http://www.w3.org/2000/svg" xmlns:xlink="http://www.w3.org/1999/xlink" xmlns:sketch="http://www.bohemiancoding.com/sketch/ns" viewBox="0 0 100 80" version="1.1" x="0px" y="0px"><title>ic_error_no_photo</title><desc>Created with Sketch.</desc><g stroke="none" stroke-width="1" fill="none" fill-rule="evenodd" sketch:type="MSPage"><g sketch:type="MSArtboardGroup" transform="translate(-183.000000, -115.000000)" fill="#000000"><path d="M183,123.392354 L183,170.607646 C183,175.243391 186.70972,179 191.295341,179 L241.379901,179 C245.961249,179 249.675242,175.240327 249.675242,170.607646 L249.675242,123.392354 C249.675242,118.756609 245.965522,115 241.379901,115 L191.295341,115 C186.713993,115 183,118.759673 183,123.392354 Z M228.393969,138.301626 C226.395623,140.348739 222.523687,140.34874 222.523687,140.34874 C223.506347,141.889625 225.21885,142.909882 227.167039,142.909882 C230.216137,142.909882 232.687919,140.410746 232.687919,137.327905 C232.687919,135.426363 231.747502,133.746897 230.311251,132.73901 C230.311251,132.73901 230.392314,136.254512 228.393969,138.301626 Z M224.16796,173 L206.632083,145.918421 L188,162.39468 L188,122.819098 C188,121.262922 189.251912,120 190.792739,120 L241.207261,120 C242.751971,120 244,121.259428 244,122.819098 L244,167.987089 L229.679389,153.595785 L218.564885,159.195082 L227.628484,172.999999 L224.16796,173 Z M202.373244,171.097391 C203.201778,171.097391 204.47045,170.73124 204.47045,169.624749 C204.47045,168.518259 203.201778,167.090435 202.373244,167.090435 C201.544711,167.090435 200.873051,167.987423 200.873051,169.093913 C200.873051,170.200404 201.544711,171.097391 202.373244,171.097391 Z M211.956105,161.747826 L207.384088,161.747826 L207.003087,161.747826 L207.003087,163.083478 L207.384088,163.083478 L211.956105,163.083478 L212.337106,163.083478 L212.337106,161.747826 L211.956105,161.747826 Z M199.954561,161.747826 L195.382545,161.747826 L195.001544,161.747826 L195.001544,163.083478 L195.382545,163.083478 L199.954561,163.083478 L200.335563,163.083478 L200.335563,161.747826 L199.954561,161.747826 Z M264.335981,123.681739 C264.397991,123.681739 258.497562,130.600294 258.497562,130.600294 L257.586232,131.695652 L259.009776,131.695652 L265.6773,131.695652 L265.6773,130.36 L260.430776,130.36 L266.189513,123.441445 L267.100844,122.346087 L265.6773,122.346087 L259.009776,122.346087 L259.009776,123.681739 L264.335981,123.681739 Z M274.412066,120.629483 L270.239178,125.574742 L269.587775,126.357684 L270.605299,126.357684 L275.371126,126.357684 L275.371126,125.402984 L271.53515,125.402984 L275.737247,120.457725 L276.38865,119.674783 L275.371126,119.674783 L270.605299,119.674783 L270.605299,120.629483 L274.412066,120.629483 Z M281.835628,118.911553 L279.312879,121.876648 L278.922309,122.346087 L279.532399,122.346087 L282.38991,122.346087 L282.38991,121.773665 L280.132365,121.773665 L282.60943,118.80857 L283,118.33913 L282.38991,118.33913 L279.532399,118.33913 L279.532399,118.911553 L281.835628,118.911553 Z" sketch:type="MSShapeGroup"/></g></g><text x="0" y="79" fill="#000000" font-size="5px" font-weight="bold" font-family="'Helvetica Neue', Helvetica, Arial-Unicode, Arial, Sans-serif">Created by Anush Arutunyan</text><text x="0" y="84" fill="#000000" font-size="5px" font-weight="bold" font-family="'Helvetica Neue', Helvetica, Arial-Unicode, Arial, Sans-serif">from the Noun Project</text></svg>